HIERARCHY
ROOT hip
{
  OFFSET 0.0 0.0 0.0
  CHANNELS 6 Xposition Yposition Zposition Zrotation Yrotation Xrotation
  JOINT torso
  {
    OFFSET 0.0 0.0 0.0
    CHANNELS 3 Zrotation Xrotation Yrotation
    JOINT neck
    {
      OFFSET -31.42098999999993 328.8025209999999 74.3554680000002
      CHANNELS 3 Zrotation Xrotation Yrotation
      JOINT head
      {
        OFFSET 3.3519900000001144 303.81732099999994 206.53942900000015
        CHANNELS 3 Zrotation Xrotation Yrotation
        End Site
        {
          OFFSET 0.0 0.0 0.0
        }
      }
    }
    JOINT left_collar
    {
      OFFSET -31.42098999999993 328.8025209999999 74.3554680000002
      CHANNELS 3 Zrotation Xrotation Yrotation
      JOINT left_upper_arm
      {
        OFFSET -124.490479 -8.162841999999841 8.226441000000023
        CHANNELS 3 Zrotation Xrotation Yrotation
        JOINT left_forearm
        {
          OFFSET -253.595764 -1.5758060000000569 105.0729980000001
          CHANNELS 3 Zrotation Xrotation Yrotation
          JOINT left_hand
          {
            OFFSET -269.48803699999996 0.1478270000000066 -55.346191999999974
            CHANNELS 3 Zrotation Xrotation Yrotation
            End Site
            {
              OFFSET 0.0 0.0 0.0
            }
          }
        }
      }
    }
    JOINT right_collar
    {
      OFFSET -31.42098999999993 328.8025209999999 74.3554680000002
      CHANNELS 3 Zrotation Xrotation Yrotation
      JOINT right_upper_arm
      {
        OFFSET 162.02484099999998 0.46441600000002836 2.2303470000001653
        CHANNELS 3 Zrotation Xrotation Yrotation
        JOINT right_forearm
        {
          OFFSET 240.01246700000004 -25.835875999999985 121.34179699999959
          CHANNELS 3 Zrotation Xrotation Yrotation
          JOINT right_hand
          {
            OFFSET 252.48539699999992 18.910399999999868 -67.53466800000001
            CHANNELS 3 Zrotation Xrotation Yrotation
            End Site
            {
              OFFSET 0.0 0.0 0.0
            }
          }
        }
      }
    }
  }
}
MOTION
Frames: 16
Frame Time: 0.01
-230.9494949162031 259.0191139295885 1367.8334437266888 0.428557776410081 -3.9187302613069828 -1.1440146550079877 0.6274091559636951 2.9212189133155033 0.1543020178689178 -3.484957228420105 -3.6492499815078103 2.4681700077462256 0.0 0.0 0.0 -0.47256695292411405 0.03993656025426076 -1.1578625195162655 50.62247413942882 7.110189508065825 29.729316661825983 42.63926769916771 -5.204333212060421 -9.938062459279665 0.0 0.0 0.0 0.047295931785632725 -0.019818397631945515 5.836078111291255 -44.64195530446928 7.344484132129995 -29.74223591158155 -52.01964409614654 -10.990380716579597 8.029247896787764 0.0 0.0 0.0
-230.77928521651472 258.87405771504075 1367.8315474529977 0.399423434968339 -3.999840863924179 -1.0819665762704547 0.6391633432337996 2.927259039550182 0.15254713495020555 -3.472033099669954 -3.5848628108181764 2.457469205611353 0.0 0.0 0.0 -0.40392326010864515 0.04580856692071596 -1.1681422703394135 50.581245611439265 7.1408396725291885 29.652293982467288 42.59666024955782 -5.185197395914071 -9.972196581452158 0.0 0.0 0.0 -0.03815440412278949 -0.014112420524733396 5.7692010749886755 -44.588464425163444 7.363367324904557 -29.68093164755437 -52.03276548505568 -10.95199400974311 8.128954169181075 0.0 0.0 0.0
-230.60991270640136 258.72738991125163 1367.8306481510465 0.3697337303486189 -4.0811115876560295 -1.0198865095272054 0.6506370564066493 2.9325746437476474 0.1507759087801635 -3.459246093374424 -3.520172039866806 2.4468623354393415 0.0 0.0 0.0 -0.33531919922670944 0.05163196357504067 -1.1774905381713532 50.54047282254876 7.171579139658369 29.575117557468328 42.55389782317785 -5.166267775962133 -10.00583490406524 0.0 0.0 0.0 -0.12316446985578582 -0.008538118628882799 5.704261330830363 -44.53520813275859 7.381872811948127 -29.620330720732152 -52.045652793983095 -10.913249557907196 8.229361686629396 0.0 0.0 0.0
-230.43952238432334 258.57891736227407 1367.82969102449 0.33889752470345086 -4.162071212618978 -0.9585355668017047 0.661830184415929 2.9366671692631376 0.1489370845828543 -3.446617370486139 -3.4557139575985625 2.436378077818268 0.0 0.0 0.0 -0.26727241644392746 0.057328162937287944 -1.1853183486044858 50.50058825976435 7.202193511886528 29.498379796155323 42.51129872818828 -5.147725035434366 -10.038623547180096 0.0 0.0 0.0 -0.20674014222450174 -0.0031545551770310763 5.6426245729718865 -44.482564784437834 7.3997388724790145 -29.561110170880752 -52.0584689476037 -10.874284594301798 8.330226220691037 0.0 0.0 0.0
-230.2659159046517 258.42840645647135 1367.8274733682854 0.3063460828006186 -4.242327451382609 -0.8986309600437741 0.6727241847876186 2.939089427385871 0.14698821022606276 -3.434155924929444 -3.3920055355211565 2.426036031643568 0.0 0.0 0.0 -0.20023726008888038 0.06282729009768417 -1.1911213109153778 50.461955750635035 7.232481923917418 29.42262597963233 42.46912445059666 -5.129726960440923 -10.070245021401872 0.0 0.0 0.0 -0.2879776797955185 0.0019908590276869987 5.585570160317294 -44.43088369478455 7.416730776088718 -29.50388634811328 -52.07132807538024 -10.835237287092447 8.431274204048242 0.0 0.0 0.0
-230.08659149463605 258.275601589472 1367.822658454069 0.27155768713973477 -4.321579541593345 -0.8408238997382457 0.6832776656138266 2.939465435333376 0.14489859956454554 -3.4218568489433534 -3.3295339958348715 2.415845259443358 0.0 0.0 0.0 -0.13458999254714216 0.06807152398176765 -1.1945079683717454 50.42485232057085 7.262260213558406 29.348340521624042 42.42756915649003 -5.1124033176958985 -10.10042834212121 0.0 0.0 0.0 -0.36609268475013396 0.0068630734781536945 5.5342470096434955 -44.38047768050924 7.43264836372211 -29.44919645173347 -52.08428304834794 -10.796247745629657 8.532194398195728 0.0 0.0 0.0
-229.89879053551218 258.1202447570425 1367.8137918959442 0.23407693918040703 -4.399624756427511 -0.7856835200073768 0.6934249359663389 2.9375056951582543 0.14265124401719703 -3.4097002433697874 -3.2687493245818673 2.4058033619310044 0.0 0.0 0.0 -0.07061821943208763 0.07301772399876268 -1.1952205261430573 50.389454492700814 7.291362616940647 29.2759375788346 42.38675291660142 -5.09585211459532 -10.128956987580725 0.0 0.0 0.0 -0.44044133295320537 0.011439291731838682 5.489638108896043 -44.33161725148989 7.447331482852131 -29.39748472258914 -52.09731759299009 -10.757459312916756 8.632631449607471 0.0 0.0 0.0
-229.6995495385598 257.9620951763938 1367.7993203322221 0.193528373825381 -4.476359003044522 -0.7336865945708576 0.7030774164615315 2.9330175295521554 0.14024365246561193 -3.3976506466496783 -3.2100596755979636 2.3958959894449356 0.0 0.0 0.0 -0.008515170136236015 0.07763920913139137 -1.193147673236887 50.35582983879517 7.319642148309048 29.205756090159973 42.34671892953519 -5.080137338915286 -10.155674469158598 0.0 0.0 0.0 -0.5105333263776864 0.01570820378017361 5.452534015740678 -44.284526601528064 7.460663142905103 -29.349093694863214 -52.110343455288074 -10.719019907887281 8.732182055644369 0.0 0.0 0.0
-229.48575626346405 257.8009476857829 1367.7776122454525 0.1496244956972668 -4.551772173842229 -0.6852122195322261 0.712127541198509 2.9259104491973393 0.13768768644521845 -3.3856567944150546 -3.153829293533743 2.3860966472039853 0.0 0.0 0.0 0.05162095676151173 0.0819266366548773 -1.1883298339424397 50.32393414876149 7.346969972718644 29.138058862881362 42.30743474097934 -5.0652881775726675 -10.180487444762905 0.0 0.0 0.0 -0.5760367261050994 0.019668742836162545 5.423514913490053 -44.23938141115459 7.472570435585706 -29.304260508411286 -52.12320266483201 -10.68108312171328 8.830394371600178 0.0 0.0 0.0
-229.2542088012082 257.6366486289132 1367.7469806909214 0.10216860870475801 -4.625939148053437 -0.640540429677303 0.7204546553077443 2.9161967227592767 0.13500850107259776 -3.3736515512013385 -3.100378409247802 2.3763666681483184 0.0 0.0 0.0 0.1097827890148534 0.08588799322579473 -1.1809574686217787 50.293614178193515 7.3732341487395185 29.07303502215647 42.268797214787355 -5.051299637589437 -10.20336643451992 0.0 0.0 0.0 -0.6367753277939354 0.023328551233613746 5.402940454434331 -44.19630835040903 7.4830233959306875 -29.263117966055404 -52.13567458253577 -10.643808764355004 8.926771117331592 0.0 0.0 0.0
-229.00167657205233 257.4691080100995 1367.7057076308633 0.05105298961212309 -4.69900741348537 -0.5998536962472341 0.7279323380205798 2.903987430695715 0.13224272694029496 -3.361551918863758 -3.0499844858755925 2.3666552697370555 0.0 0.0 0.0 0.16604527104692715 0.08954776544114137 -1.1713631958051338 50.26461559291897 7.398338121808683 29.01080498655054 42.23064080568664 -5.038134433367781 -10.224344298463844 0.0 0.0 0.0 -0.6927195805424263 0.026702316950185333 5.390946499221888 -44.155386078229725 7.49203207862387 -29.225699774908662 -52.14748711140791 -10.607362596206428 9.020776600330905 0.0 0.0 0.0
-228.72496237104858 257.2983069348893 1367.6520694939811 -0.0037468811760522146 -4.771182268107784 -0.5632403092633835 0.7344365233288538 2.889484368963204 0.12943604840576128 -3.3492590877366175 -3.0028841884700355 2.356899654187133 0.0 0.0 0.0 0.2205536478077575 0.09294540138351808 -1.1600086383672872 50.236595472926645 7.422199304912261 28.951427102205024 42.192748509743076 -5.025725958830303 -10.24351271386401 0.0 0.0 0.0 -0.743972260348922 0.029810107593951304 5.387447820115932 -44.116647483573395 7.499642195844245 -29.19194923288062 -52.15833120333037 -10.571915054894255 9.11184758368612 0.0 0.0 0.0
-228.42096479735133 257.12429972631435 1367.5843635124177 -0.062181170120106884 -4.842710528683269 -0.5306987371994735 0.7398537538614923 2.8729682758479735 0.12664035346019314 -3.336658545387408 -2.959275497183636 2.347025147161533 0.0 0.0 0.0 0.27350888306946675 0.09613320784853174 -1.147467023124874 50.209138565989754 7.444748011409289 28.894905126231194 42.15486472531485 -5.013982128907616 -10.261016946504974 0.0 0.0 0.0 -0.7907502197101339 0.032675790918077235 5.392145828943222 -44.08008289929688 7.505929706728067 -29.16173051434941 -52.167877604223 -10.53763888717436 9.199407618904026 0.0 0.0 0.0
-228.086740553715 256.947210577662 1367.5009343399654 -0.1241366564779426 -4.913863655919947 -0.502142180368478 0.7440889117706736 2.854784005611477 0.12391064710703054 -3.32362029571044 -2.9193194710096924 2.336945398772791 0.0 0.0 0.0 0.32515151290866773 0.09917384796160855 -1.1344026553529774 50.181776380070936 7.465926924306979 28.84119585463061 42.11670914500521 -5.002789851998329 -10.277049244554759 0.0 0.0 0.0 -0.8333635714256116 0.035325596509275387 5.404540418971667 -44.04564403259743 7.510994763952367 -29.134841670247926 -52.175794655041756 -10.504705707295223 9.282884169240303 0.0 0.0 0.0
-227.7195661315694 256.7672250868557 1367.4002004239894 -0.18944882138677732 -4.984921197508808 -0.4774026990767115 0.7470718421191908 2.8353234435517405 0.12130192728787378 -3.3099992717498323 -2.8831412875121196 2.326562695343772 0.0 0.0 0.0 0.3757449342225933 0.10213760947323972 -1.121548411882681 50.15400815513905 7.485691209224345 28.790216311743333 42.07799073092219 -4.9920198851153295 -10.291841194358968 0.0 0.0 0.0 -0.8721936422034933 0.037786846153504194 5.42394508822472 -44.013248381339636 7.51495541254671 -29.111028477005235 -52.181765925253174 -10.473281613421998 9.361727604849401 0.0 0.0 0.0
-227.31699830277537 256.5845774398564 1367.2806795757126 -0.257914136296562 -5.05615541338228 -0.4562345032232859 0.7487624186811644 2.815007096974278 0.11886621396865396 -3.295636048429612 -2.850830329337303 2.3157684501733895 0.0 0.0 0.0 0.42555907722222874 0.10509960526118757 -1.1096823325124356 50.12532274882789 7.504009306388129 28.741850049894218 42.038420825235725 -4.981531829188804 -10.305655365444288 0.0 0.0 0.0 -0.907670948237074 0.04008686152943562 5.449504642086688 -43.98278393244347 7.517941405205736 -29.089998330650868 -52.18550650932928 -10.443522093093812 9.43543097959496 0.0 0.0 0.0
